<svg xmlns="http://www.w3.org/2000/svg" xmlns:xlink="http://www.w3.org/1999/xlink" width="345" height="26" viewBox="0 0 345 26"><defs><style>.a,.c{fill:#fff;}.a{stroke:#707070;}.b{clip-path:url(#a);}.d{fill:#fb0;}</style><clipPath id="a"><rect class="a" width="345" height="26"/></clipPath></defs><g class="b"><g transform="translate(8.703 6.479)"><path class="c" d="M0,.137v0Z" transform="translate(9.018 12.722)"/><path class="c" d="M0,.21,0,0Z" transform="translate(9.018 12.512)"/><path class="c" d="M0,.028c0-.035,0-.04,0,0Z" transform="translate(9.021 12.469)"/><path class="d" d="M327.794,2.58c-.172.369-.319.687-.475,1.021l-1.529-.008c-.063-.271-.112-.493-.212-.932l-2.052.846q-.767-.473-1.531-.948l-.263.058c.2.317.4.632.8,1.278-.984-.289-1.482-.424-1.957-.579-.517-.169-1.007-.358-1.51-.538l-.226.182.633.666-17.486-.1L300.132,4.8l-1.182-.537-3.016.094a18.822,18.822,0,0,0-2.452-.363c-2.429-.03-4.863.024-7.3.03-1.757,0-3.511-.017-5.268-.028l0,.14-14.237-.082a7.033,7.033,0,0,1-.989-.034c-1.652.08-3.295.267-4.944.28-2.241.018-4.484-.108-6.729-.133-1.487-.017-2.978.052-4.468.054-2.111,0-4.219-.02-6.327-.032l.016-.068L232.9,4.386c-4.691.023-9.4.14-14.119-.007-4.691-.148-9.431.1-14.215.176l-.265.386c-.326-.287-.552-.484-.514-.45l-10.629-.062-.03.113-3.534-.12-.1.187-41.886.3-.035-.228-1.043.428-3.29-.353.033.2L133.524,4.9l.046.115-5.307-.03-.037.133-7.292-.042-.156.131-8.046-.046c-1.612-.077-3.2-.115-4.789-.089-2.362.04-4.723.123-7.085.191-1.9.056-3.8.152-5.7.17-2.313.023-4.632-.054-6.945-.019a30.936,30.936,0,0,1-4.2.217,31.17,31.17,0,0,0-7.576.107,27.07,27.07,0,0,1-3.984-.189l.026-.12L67.2,5.4l-.26.291C63.818,5.671,60.908,5.6,58,5.651c-2.839.046-5.666.257-8.5.309-4.151.076-8.306.087-12.46.1-1.236,0-2.471-.079-3.707-.12l.042.083-20.018.194-.007.307,0-.038,0,.056h0C10.9,7.465,3.092,6.3,3.472,6.923L.021,5.935c-.263-1.386,2-4.806,3.858-5.813C5.173.082,6.615-.012,8.051,0,12.376.043,16.7.148,21.023.188c4.128.039,8.258,0,12.383.051C37.59.294,41.771.49,45.953.506,54.4.537,62.843.444,71.287.48c10.09.044,20.174.213,30.263.249q27.454.1,54.913.1,20.959.03,41.918.044c9.838,0,19.673-.039,29.511-.027,10.168.013,20.334.068,30.5.1q14.286.045,28.567.082,8.945.036,17.886.125a15.859,15.859,0,0,1,1.959.252l-.046-.082,19.157.563-.372.409Z" transform="translate(0 0)"/><path class="c" d="M0,.014v0Z" transform="translate(9.021 12.497)"/></g></g></svg>