<svg xmlns="http://www.w3.org/2000/svg" width="19" height="19" viewBox="0 0 19 19"><defs><style>.a{fill:#2a2a2a;}</style></defs><path class="a" d="M27,17.5A9.5,9.5,0,1,1,17.5,8,9.5,9.5,0,0,1,27,17.5Zm-9.245-6.359a4.962,4.962,0,0,0-4.465,2.442.46.46,0,0,0,.1.623l1.329,1.008a.46.46,0,0,0,.638-.081c.684-.868,1.154-1.371,2.2-1.371.783,0,1.751.5,1.751,1.263,0,.574-.474.868-1.246,1.3-.9.505-2.094,1.134-2.094,2.707v.153a.46.46,0,0,0,.46.46h2.145a.46.46,0,0,0,.46-.46v-.051c0-1.09,3.187-1.136,3.187-4.086C22.219,12.827,19.914,11.141,17.755,11.141Zm-.255,9.5A1.762,1.762,0,1,0,19.262,22.4,1.764,1.764,0,0,0,17.5,20.641Z" transform="translate(-8 -8)"/></svg>