<svg xmlns="http://www.w3.org/2000/svg" width="638.018" height="271.005" viewBox="0 0 638.018 271.005"><defs><style>.a{fill:none;stroke-dasharray:5 5;}.a,.b{stroke:#fb0;}.b{fill:#fb0;stroke-miterlimit:10;}</style></defs><g transform="translate(-304.48 -3694.496)"><path class="a" d="M10778,16249.8v124.107l-633.066,3.344.094,135.02" transform="translate(-9838 -12551)"/><path class="b" d="M1426.75,281.63a2.323,2.323,0,0,0-.49-.776,2.043,2.043,0,0,0-1.68-.608,1.894,1.894,0,0,0-1.505,1.017,2.03,2.03,0,0,0,.045,1.908,2.108,2.108,0,0,0,1.65,1.058,1.9,1.9,0,0,0,1.69-.817,1.959,1.959,0,0,0,.283-.686.19.19,0,0,0,.089-.144A1.82,1.82,0,0,0,1426.75,281.63Zm-.5,1.147a1.353,1.353,0,0,1-1.075.882,1.533,1.533,0,0,1-1.328-.5,1.4,1.4,0,0,1,.492-2.271,1.465,1.465,0,0,1,1.379.25,2.012,2.012,0,0,1,.629,1.262A2.084,2.084,0,0,1,1426.25,282.777Z" transform="translate(-1117.857 3680.766)"/><path class="b" d="M1426.75,281.63a2.323,2.323,0,0,0-.49-.776,2.043,2.043,0,0,0-1.68-.608,1.894,1.894,0,0,0-1.505,1.017,2.03,2.03,0,0,0,.045,1.908,2.108,2.108,0,0,0,1.65,1.058,1.9,1.9,0,0,0,1.69-.817,1.959,1.959,0,0,0,.283-.686.19.19,0,0,0,.089-.144A1.82,1.82,0,0,0,1426.75,281.63Zm-.5,1.147a1.353,1.353,0,0,1-1.075.882,1.533,1.533,0,0,1-1.328-.5,1.4,1.4,0,0,1,.492-2.271,1.465,1.465,0,0,1,1.379.25,2.012,2.012,0,0,1,.629,1.262A2.084,2.084,0,0,1,1426.25,282.777Z" transform="translate(-484.857 3414.766)"/></g></svg>