<svg xmlns="http://www.w3.org/2000/svg" width="37.08" height="29.16" viewBox="0 0 37.08 29.16"><defs><style>.a{fill:#29413b;}</style></defs><path class="a" d="M37.08,20.28v1.2c0,5.4-3.96,7.68-8.16,7.68-5.28,0-8.16-1.92-8.16-10.08,0-3.12,1.32-5.52,4.44-6.12a.971.971,0,0,0,.96-1.08c0-2.16-5.76-7.8-5.76-10.44C20.4.36,21.6,0,22.68,0,28.68,0,36.36,13.8,37.08,20.28Zm-20.4,0v1.2c0,5.4-3.96,7.68-8.16,7.68C3.24,29.16.36,27.24.36,19.08c0-3.12,1.32-5.52,4.44-6.12a.971.971,0,0,0,.96-1.08C5.76,9.72,0,4.08,0,1.44,0,.36,1.2,0,2.28,0,8.28,0,15.96,13.8,16.68,20.28Z" transform="translate(37.08 29.16) rotate(180)"/></svg>