<svg xmlns="http://www.w3.org/2000/svg" width="37.08" height="29.16" viewBox="0 0 37.08 29.16"><defs><style>.a{fill:#29413b;}</style></defs><path class="a" d="M47.16-3.52v1.2c0,5.4-3.96,7.68-8.16,7.68-5.28,0-8.16-1.92-8.16-10.08,0-3.12,1.32-5.52,4.44-6.12a.971.971,0,0,0,.96-1.08c0-2.16-5.76-7.8-5.76-10.44,0-1.08,1.2-1.44,2.28-1.44C38.76-23.8,46.44-10,47.16-3.52Zm-20.4,0v1.2c0,5.4-3.96,7.68-8.16,7.68-5.28,0-8.16-1.92-8.16-10.08,0-3.12,1.32-5.52,4.44-6.12a.971.971,0,0,0,.96-1.08c0-2.16-5.76-7.8-5.76-10.44,0-1.08,1.2-1.44,2.28-1.44C18.36-23.8,26.04-10,26.76-3.52Z" transform="translate(47.16 5.36) rotate(180)"/></svg>