<svg xmlns="http://www.w3.org/2000/svg" width="298.207" height="49.977" viewBox="0 0 298.207 49.977"><defs><style>.a{fill:#005031;}.b{fill:none;stroke:#6d6f72;stroke-width:1.158px;}.c{fill:#fff;}.d{fill:#007042;}.e{fill:#b7a588;}</style></defs><path class="a" d="M298.964,8.294l9.68,18.589L298.9,45.469h58.992l-.2-37.11Z" transform="translate(-61.204 -1.698)"/><g transform="translate(88.082 19.559)"><path class="a" d="M115.038,35.752l-.383-2.759H112.83l-.367,2.759h-1.7l1.839-11h2.239l1.885,11Zm-2.007-4.245h1.424l-.689-5.042h-.06Z" transform="translate(-110.762 -24.626)"/><path class="a" d="M124.657,35.752l-1.18-4.674h-.736v4.674h-1.67v-11h2.208c1.946,0,2.957.782,2.957,2.927a2.714,2.714,0,0,1-1.272,2.636l1.5,5.44Zm-1.395-6.1c.826,0,1.225-.445,1.225-1.792,0-1.517-.582-1.671-1.379-1.671h-.368v3.463Z" transform="translate(-112.873 -24.626)"/><path class="a" d="M136.182,35.752V27.814h-.031l-1.424,7.938h-1.058l-1.457-7.938h-.029v7.938h-1.442v-11h2.208l1.225,6.85h.031l1.288-6.85h2.131v11Z" transform="translate(-114.853 -24.626)"/><path class="a" d="M142.9,35.752v-11h4.475V26.3h-2.8v3.02h2.207v1.5h-2.207V34.2h2.973v1.547Z" transform="translate(-117.343 -24.626)"/><path class="a" d="M151.7,35.752v-11h1.808c2.606,0,3.709,1.318,3.709,5.395,0,3.617-.705,5.609-3.509,5.609Zm2.115-1.578c1.21,0,1.654-1.181,1.654-4.031,0-3.035-.566-3.816-1.777-3.816h-.261v7.847Z" transform="translate(-119.145 -24.626)"/><path class="a" d="M166.46,35.752v-11h4.475V26.3h-2.8v3.02h2.207v1.5h-2.207v4.934Z" transform="translate(-122.167 -24.626)"/><path class="a" d="M174.341,30.2c0-4.046.736-5.609,2.79-5.609,2.037,0,2.79,1.563,2.79,5.609,0,3.77-.69,5.639-2.79,5.639S174.341,33.974,174.341,30.2Zm3.831,0c0-3.1-.276-4.092-1.042-4.092-.783,0-1.043,1-1.043,4.092,0,3.218.337,4.169,1.043,4.169C177.82,34.372,178.172,33.421,178.172,30.2Z" transform="translate(-123.781 -24.595)"/><path class="a" d="M188.1,35.752l-1.18-4.674h-.736v4.674h-1.669v-11h2.207c1.946,0,2.957.782,2.957,2.927a2.713,2.713,0,0,1-1.272,2.636l1.5,5.44Zm-1.394-6.1c.826,0,1.225-.445,1.225-1.792,0-1.517-.583-1.671-1.38-1.671h-.368v3.463Z" transform="translate(-125.864 -24.626)"/><path class="a" d="M199.206,31.844c-.06,2.375-.674,4-2.6,4-2.27,0-2.744-2.068-2.744-5.655,0-3.019.352-5.593,2.713-5.593,1.977,0,2.513,1.532,2.575,3.708h-1.564c-.06-1.379-.337-2.146-.95-2.146-.782,0-1.027,1.042-1.027,4.03,0,3.249.245,4.138,1.027,4.138.689,0,.95-.919,1.012-2.482Z" transform="translate(-127.777 -24.595)"/><path class="a" d="M203.7,35.752v-11h4.475V26.3h-2.8v3.02h2.207v1.5h-2.207V34.2h2.973v1.547Z" transform="translate(-129.793 -24.626)"/><path class="a" d="M215.425,27.675c-.045-.966-.305-1.625-.965-1.625-.566,0-.8.368-.8.966,0,2.344,3.4,2.819,3.4,6.084a2.456,2.456,0,0,1-2.605,2.743c-1.762,0-2.406-1.027-2.515-2.988l1.549-.091c.091,1.15.321,1.655,1,1.655.582,0,.919-.444.919-1.179,0-2.406-3.355-2.9-3.355-6.07a2.271,2.271,0,0,1,2.375-2.573c1.808,0,2.39,1.225,2.5,2.988Z" transform="translate(-131.481 -24.595)"/><path class="a" d="M229.837,35.752,227.522,28.4h-.031v7.356h-1.439v-11h1.823l1.9,6.192h.032V24.748h1.455v11Z" transform="translate(-134.37 -24.626)"/><path class="a" d="M236.108,35.752v-11h4.475V26.3h-2.8v3.02h2.207v1.5h-2.207V34.2h2.973v1.547Z" transform="translate(-136.429 -24.626)"/><path class="a" d="M245.854,35.752V26.3H244.2V24.748h4.98V26.3h-1.639v9.456Z" transform="translate(-138.086 -24.626)"/><path class="a" d="M257.645,35.752l-.842-7.57h-.031l-.782,7.57h-1.731l-1.641-11h1.641l.828,7.433h.029l.843-7.433h1.686l.89,7.433h.029l.783-7.433h1.641l-1.58,11Z" transform="translate(-139.809 -24.626)"/><path class="a" d="M265.276,30.2c0-4.046.736-5.609,2.79-5.609,2.038,0,2.79,1.563,2.79,5.609,0,3.77-.689,5.639-2.79,5.639S265.276,33.974,265.276,30.2Zm3.832,0c0-3.1-.277-4.092-1.043-4.092-.782,0-1.042,1-1.042,4.092,0,3.218.337,4.169,1.042,4.169S269.108,33.421,269.108,30.2Z" transform="translate(-142.401 -24.595)"/><path class="a" d="M279.034,35.752l-1.18-4.674h-.735v4.674h-1.672v-11h2.208c1.946,0,2.957.782,2.957,2.927a2.711,2.711,0,0,1-1.272,2.636l1.5,5.44Zm-1.395-6.1c.828,0,1.227-.445,1.227-1.792,0-1.517-.582-1.671-1.381-1.671h-.367v3.463Z" transform="translate(-144.484 -24.626)"/><path class="a" d="M288.889,35.752l-1.424-5.21-.72,1.594v3.617H285.12v-11h1.625v4.614h.031l1.931-4.614h1.685L288.615,28.7l1.977,7.05Z" transform="translate(-146.465 -24.626)"/></g><line class="b" y2="49.977" transform="translate(56.485)"/><path class="c" d="M41.276,26.409A20.638,20.638,0,1,1,20.637,5.77,20.639,20.639,0,0,1,41.276,26.409" transform="translate(0 -1.182)"/><path class="d" d="M22.716,14.693a12.119,12.119,0,0,0-4.15,0c-.106.019-.145-.083-.065-.142s2.138-1.627,2.138-1.627L22.78,14.55c.079.059.038.161-.064.142m-3.574,10.22a.236.236,0,0,0-.138.135c.433.333.732,1.09,1.635,1.09s1.2-.757,1.637-1.09a.238.238,0,0,0-.14-.135,7.169,7.169,0,0,1-1.5.134,7.169,7.169,0,0,1-1.5-.134m1.5-1.276c-.248,0-.306-.1-.476-.095a.845.845,0,0,0-.549.25.268.268,0,0,0,.07.163c.367.054.531.258.955.258s.59-.2.955-.258a.271.271,0,0,0,.072-.163.845.845,0,0,0-.548-.25c-.171,0-.227.095-.479.095m20.608,3.9c-.026.492-.07.982-.13,1.466-2.336.387-3.171-1.694-5.565-1.59a14.816,14.816,0,0,1,.35,1.554c1.974,0,2.769,1.843,4.965,1.572-.117.565-.257,1.12-.415,1.668-1.738.173-2.348-1.553-4.356-1.506.015.287.023.575.023.866,0,.161,0,.323-.008.482,1.714-.02,2.273,1.563,3.9,1.489q-.307.833-.683,1.628c-1.173-.064-1.576-1.568-3.361-1.449-.054.386-.121.768-.2,1.144,1.55-.108,1.885,1.318,2.994,1.432-.281.517-.587,1.02-.91,1.509-.66-.352-1.23-1.416-2.476-1.482.126-.394.239-.794.334-1.2a5.172,5.172,0,0,1-3.432-1.4c.344-1.958-2.7-3.952-2.7-5.386,0-1.556.788-2.418.788-4.518a6.58,6.58,0,0,0-1.9-4.4,3.9,3.9,0,0,0-.71-.569,7.366,7.366,0,0,1,1.854,4.618c0,1.977-.919,3.02-.919,4.845s2.668,3.4,2.668,5.285a5.909,5.909,0,0,1-1.016,2.883,6.029,6.029,0,0,0,3.766,1.851.581.581,0,0,0,.62-.356c.1-.223.2-.445.285-.671,1.084.041,1.581,1.027,2.182,1.421q-.494.663-1.037,1.284a3.93,3.93,0,0,0-1.737-1.4c-.142.276-.29.548-.449.814a3.344,3.344,0,0,1,1.51,1.325c-.388.4-.8.79-1.216,1.161a4.035,4.035,0,0,0-1.132-1.21c-.171.23-.348.453-.53.671a3.6,3.6,0,0,1,.961,1.129c-.488.393-.991.762-1.513,1.11-.258-2.1-3.118-3.532-2.348-5.965a3.185,3.185,0,0,0-.554,1.609c0,1.762,1.876,3.159,2.025,4.908q-.582.348-1.193.658c-.067-1.924-2.053-4.026-2.053-5.606,0-1.763,2.308-3.532,2.308-5.612s-2.662-3.522-2.662-5.348,1.132-2.876,1.132-5.218a6.247,6.247,0,0,0-2.072-4.557,3.38,3.38,0,0,0-.705-.49,6.745,6.745,0,0,1,1.875,4.674c0,2.2-1.3,3.423-1.3,5.577s2.611,3.354,2.611,5.362S26.7,37.3,26.7,39.361c0,1.876,2.144,3.752,2.177,5.978q-.7.307-1.434.561c.274-2.251-2.14-4.573-2.14-6.408,0-2.009,2.522-3.733,2.522-5.9s-2.562-3.171-2.562-5.393,1.573-3.452,1.573-5.906a5.977,5.977,0,0,0-2.325-4.7l-.087-.066c-.13-.1-.238.02-.146.135a6.3,6.3,0,0,1,1.5,4.278c0,2.246-1.808,4.069-1.808,6.246,0,2.568,2.427,3.3,2.427,5.407s-2.6,3.79-2.6,6.027c0,2.073,2.465,4.375,2.041,6.767q-.743.193-1.5.331c.461-2.981-1.954-5.121-1.954-7.07,0-2.111,2.694-3.992,2.694-6.055,0-1.944-1.935-2.581-2.189-4.571a.466.466,0,0,0-.553-.422,6.587,6.587,0,0,1-1.688.332,6.586,6.586,0,0,1-1.687-.332.465.465,0,0,0-.553.422c-.255,1.99-2.188,2.627-2.188,4.571,0,2.063,2.693,3.944,2.693,6.055,0,1.949-2.416,4.089-1.955,7.07-.506-.092-1.008-.2-1.5-.331C15.027,44,17.49,41.694,17.49,39.621c0-2.237-2.6-3.921-2.6-6.027s2.428-2.839,2.428-5.407c0-2.177-1.808-4-1.808-6.246a6.294,6.294,0,0,1,1.5-4.278c.09-.115-.016-.231-.146-.135-.029.021-.059.043-.087.066a5.982,5.982,0,0,0-2.325,4.7c0,2.454,1.574,3.684,1.574,5.906s-2.565,3.229-2.565,5.393,2.524,3.889,2.524,5.9c0,1.835-2.414,4.157-2.141,6.408-.486-.169-.965-.357-1.431-.561.031-2.226,2.174-4.1,2.174-5.978,0-2.064-2.431-3.758-2.431-5.767s2.611-3.206,2.611-5.362-1.3-3.376-1.3-5.577a6.751,6.751,0,0,1,1.874-4.674,3.454,3.454,0,0,0-.707.49,6.247,6.247,0,0,0-2.072,4.557c0,2.341,1.134,3.391,1.134,5.218s-2.664,3.267-2.664,5.348,2.308,3.849,2.308,5.612c0,1.579-1.986,3.682-2.053,5.606-.4-.206-.8-.426-1.191-.658.151-1.75,2.024-3.147,2.024-4.909a3.17,3.17,0,0,0-.554-1.609C12.34,40.068,9.475,41.5,9.221,43.6c-.523-.348-1.027-.717-1.515-1.11a3.63,3.63,0,0,1,.961-1.129c-.183-.218-.36-.441-.53-.671A4.038,4.038,0,0,0,7,41.9q-.632-.556-1.215-1.161A3.335,3.335,0,0,1,7.3,39.414c-.158-.266-.308-.538-.451-.814A3.918,3.918,0,0,0,5.116,40c-.363-.414-.712-.841-1.039-1.284.6-.394,1.1-1.38,2.181-1.421.091.226.187.449.288.671a.579.579,0,0,0,.618.356,6.026,6.026,0,0,0,3.766-1.851,5.935,5.935,0,0,1-1.016-2.883c0-1.881,2.67-3.461,2.67-5.285s-.921-2.868-.921-4.845a7.374,7.374,0,0,1,1.854-4.618,3.891,3.891,0,0,0-.709.569,6.571,6.571,0,0,0-1.9,4.4c0,2.1.787,2.961.787,4.518,0,1.435-3.038,3.428-2.7,5.386a5.167,5.167,0,0,1-3.432,1.4q.144.612.337,1.2c-1.249.066-1.819,1.129-2.476,1.482q-.487-.734-.911-1.509c1.109-.115,1.443-1.541,2.993-1.433-.081-.376-.15-.759-.2-1.144C3.527,33.6,3.123,35.1,1.948,35.167c-.248-.53-.476-1.073-.68-1.628,1.631.074,2.188-1.509,3.9-1.489,0-.159-.008-.32-.008-.482,0-.291.01-.579.025-.866-2.009-.047-2.62,1.679-4.357,1.506q-.24-.821-.413-1.668c2.192.271,2.989-1.574,4.965-1.572a14.412,14.412,0,0,1,.346-1.554c-2.394-.1-3.229,1.978-5.565,1.59-.06-.484-.1-.973-.13-1.466,2.717.3,3.734-1.929,6.208-1.656a14.518,14.518,0,0,1,.807-1.713C3.948,23.627,2.9,26.219.012,25.82a20.638,20.638,0,0,1,41.259,0c-2.886.4-3.938-2.193-7.038-1.649a14.279,14.279,0,0,1,.809,1.713c2.472-.274,3.49,1.959,6.205,1.656M11.768,18.884a5.371,5.371,0,0,0-4.93.531,5.387,5.387,0,0,0-2.167-3.544.186.186,0,0,0-.3.176C4.606,19.136,2.8,21.818.581,24.176c2.287.687,4.237-2.259,7.2-1.23a15.567,15.567,0,0,1,3.984-4.061m8.872-1.869A4,4,0,0,0,16.7,19.5c-.033.108.013.177.135.122A2.812,2.812,0,0,1,18,19.392a2.393,2.393,0,0,1,1.878.786,3.336,3.336,0,0,1-.01,1.946c-.321-.072-.436-.321-.751-.321s-.557.222-1.09.222-.595-.253-.944-.253c-.414,0-.49.425-.49.9,0,2.135,1.962,5.073,4.049,5.073s4.049-2.938,4.049-5.073c0-.479-.1-.888-.53-.944a1.305,1.305,0,0,1-.9.293c-.533,0-.678-.222-.994-.222-.379,0-.34.8-.79.844a3.783,3.783,0,0,1-.065-2.468,2.394,2.394,0,0,1,1.878-.786,2.789,2.789,0,0,1,1.162.23c.125.056.168-.014.137-.122a4,4,0,0,0-3.942-2.484m3.051,3.063a1.812,1.812,0,0,0-1.338.518.521.521,0,0,0,.016.357c.834-.285,1.569-.3,1.923.1a.644.644,0,0,0,.248-.506c0-.278-.281-.47-.849-.47m-6.7.976a2.13,2.13,0,0,1,2.128-.06c.039-.438-.744-.915-1.528-.915-.569,0-.848.192-.848.47a.639.639,0,0,0,.248.506M30.2,13.827A6.821,6.821,0,0,0,26.3,15.32a15.257,15.257,0,0,1,1.75-3.483,7.507,7.507,0,0,0-4.712,2.112l-.92-2.41,2.045-1.8-2.736-.193L20.64,7l-1.09,2.541-2.733.193,2.041,1.8-.918,2.41a7.515,7.515,0,0,0-4.713-2.112,15.289,15.289,0,0,1,1.75,3.483,6.816,6.816,0,0,0-3.889-1.493A18.312,18.312,0,0,1,13.4,17.575a.25.25,0,0,0,.368.122,15.5,15.5,0,0,1,13.754,0,.249.249,0,0,0,.367-.122,18.181,18.181,0,0,1,2.31-3.748m3.3,9.118c2.969-1.029,4.918,1.917,7.207,1.23-2.221-2.358-4.028-5.039-3.788-8.129a.187.187,0,0,0-.306-.176,5.387,5.387,0,0,0-2.165,3.544,5.376,5.376,0,0,0-4.932-.531A15.517,15.517,0,0,1,33.5,22.945" transform="translate(-0.002 -1.182)"/><path class="d" d="M41.425,56.891h-.29V55.081h-.668v-.253H42.09v.253h-.665Z" transform="translate(-8.286 -11.227)"/><path class="d" d="M43.931,56.414h0l.615-1.586H45v2.063H44.71V55.168h0l-.69,1.723H43.83l-.687-1.723h0v1.723h-.281V54.828h.45Z" transform="translate(-8.776 -11.227)"/><path class="e" d="M315.422,6.919H94.752V46.281H317.609V6.919ZM96.939,9.106H256.284L265.457,26.6l-9.173,17.494H96.939ZM315.422,44.095h-56L268.6,26.6,259.427,9.106h55.995Z" transform="translate(-19.402 -1.417)"/><path class="c" d="M339.01,15.144l3.044,9.372h9.853l-7.973,5.792,3.046,9.37-7.971-5.792-7.973,5.792,3.045-9.37-7.972-5.792h9.853Z" transform="translate(-66.777 -3.101)"/><path class="e" d="M299.8,6.919" transform="translate(-61.39 -1.417)"/></svg>